<?xml version="1.0" encoding="UTF-8" standalone="no"?>
<!-- Created with Inkscape (http://www.inkscape.org/) -->

<svg
   xmlns:dc="http://purl.org/dc/elements/1.1/"
   xmlns:cc="http://creativecommons.org/ns#"
   xmlns:rdf="http://www.w3.org/1999/02/22-rdf-syntax-ns#"
   xmlns:svg="http://www.w3.org/2000/svg"
   xmlns="http://www.w3.org/2000/svg"
   xmlns:sodipodi="http://sodipodi.sourceforge.net/DTD/sodipodi-0.dtd"
   xmlns:inkscape="http://www.inkscape.org/namespaces/inkscape"
   version="1.1"
   id="svg4518"
   xml:space="preserve"
   width="1066"
   height="511.4"
   viewBox="0 0 1066 511.4"
   sodipodi:docname="city.svg"
   inkscape:version="0.92.4 (5da689c313, 2019-01-14)"><metadata
     id="metadata4524"><rdf:RDF><cc:Work
         rdf:about=""><dc:format>image/svg+xml</dc:format><dc:type
           rdf:resource="http://purl.org/dc/dcmitype/StillImage" /><dc:title></dc:title></cc:Work></rdf:RDF></metadata><defs
     id="defs4522"><clipPath
       clipPathUnits="userSpaceOnUse"
       id="clipPath4540"><path
         d="M 0,800 H 800 V 0 H 0 Z"
         id="path4538"
         inkscape:connector-curvature="0" /></clipPath><clipPath
       clipPathUnits="userSpaceOnUse"
       id="clipPath4548"><path
         d="M 0,400 H 800 V 0 H 0 Z"
         id="path4546"
         inkscape:connector-curvature="0" /></clipPath><radialGradient
       fx="0"
       fy="0"
       cx="0"
       cy="0"
       r="1"
       gradientUnits="userSpaceOnUse"
       gradientTransform="matrix(316.2,0,0,-316.2,400,200)"
       spreadMethod="pad"
       id="radialGradient4558"><stop
         style="stop-opacity:1;stop-color:#ffffff"
         offset="0"
         id="stop4554" /><stop
         style="stop-opacity:1;stop-color:#1d1d1b"
         offset="1"
         id="stop4556" /></radialGradient><clipPath
       clipPathUnits="userSpaceOnUse"
       id="clipPath4580"><path
         d="M 0,800 H 800 V 400 H 0 Z"
         id="path4578"
         inkscape:connector-curvature="0" /></clipPath><radialGradient
       fx="0"
       fy="0"
       cx="0"
       cy="0"
       r="1"
       gradientUnits="userSpaceOnUse"
       gradientTransform="matrix(316.2,0,0,-316.2,400,600)"
       spreadMethod="pad"
       id="radialGradient4590"><stop
         style="stop-opacity:1;stop-color:#ffffff"
         offset="0"
         id="stop4586" /><stop
         style="stop-opacity:1;stop-color:#1d1d1b"
         offset="1"
         id="stop4588" /></radialGradient><clipPath
       clipPathUnits="userSpaceOnUse"
       id="clipPath4612"><path
         d="M 0,800 H 800 V 0 H 0 Z"
         id="path4610"
         inkscape:connector-curvature="0" /></clipPath><clipPath
       clipPathUnits="userSpaceOnUse"
       id="clipPath4620"><path
         d="m 73,721.5 h 66.9 V 694.3 H 73 Z"
         id="path4618"
         inkscape:connector-curvature="0" /></clipPath><clipPath
       clipPathUnits="userSpaceOnUse"
       id="clipPath4636"><path
         d="M 45.95,552.6 H 112.9 V 525.4 H 45.95 Z"
         id="path4634"
         inkscape:connector-curvature="0" /></clipPath><clipPath
       clipPathUnits="userSpaceOnUse"
       id="clipPath4652"><path
         d="m 622.2,775.1 h 66.9 v -27.2 h -66.9 z"
         id="path4650"
         inkscape:connector-curvature="0" /></clipPath><clipPath
       clipPathUnits="userSpaceOnUse"
       id="clipPath4668"><path
         d="m 677.9,630.8 h 66.9 v -27.2 h -66.9 z"
         id="path4666"
         inkscape:connector-curvature="0" /></clipPath><clipPath
       clipPathUnits="userSpaceOnUse"
       id="clipPath4684"><path
         d="m 443.5,761.5 h 66.9 v -27.2 h -66.9 z"
         id="path4682"
         inkscape:connector-curvature="0" /></clipPath><clipPath
       clipPathUnits="userSpaceOnUse"
       id="clipPath4730"><path
         d="M 126.7,738.5 H 241.1 V 490.4 H 126.7 Z"
         id="path4728"
         inkscape:connector-curvature="0" /></clipPath><clipPath
       clipPathUnits="userSpaceOnUse"
       id="clipPath4754"><path
         d="M 476,738.6 H 590.4 V 490.5 H 476 Z"
         id="path4752"
         inkscape:connector-curvature="0" /></clipPath><clipPath
       clipPathUnits="userSpaceOnUse"
       id="clipPath4814"><path
         d="m 245.8,521.5 h 2.9 v -30.7 h -2.9 z"
         id="path4812"
         inkscape:connector-curvature="0" /></clipPath><clipPath
       clipPathUnits="userSpaceOnUse"
       id="clipPath4834"><path
         d="m 676.4,517.2 h 2.9 v -30.8 h -2.9 z"
         id="path4832"
         inkscape:connector-curvature="0" /></clipPath><clipPath
       clipPathUnits="userSpaceOnUse"
       id="clipPath4998"><path
         d="M 0,800 H 800 V 0 H 0 Z"
         id="path4996"
         inkscape:connector-curvature="0" /></clipPath><clipPath
       clipPathUnits="userSpaceOnUse"
       id="clipPath5114"><path
         d="M 125.7,335.5 H 240.1 V 87.44 H 125.7 Z"
         id="path5112"
         inkscape:connector-curvature="0" /></clipPath><clipPath
       clipPathUnits="userSpaceOnUse"
       id="clipPath5138"><path
         d="M 475,335.6 H 589.4 V 87.51 H 475 Z"
         id="path5136"
         inkscape:connector-curvature="0" /></clipPath><clipPath
       clipPathUnits="userSpaceOnUse"
       id="clipPath5198"><path
         d="m 244.8,118.5 h 2.9 V 87.79 h -2.9 z"
         id="path5196"
         inkscape:connector-curvature="0" /></clipPath><clipPath
       clipPathUnits="userSpaceOnUse"
       id="clipPath5218"><path
         d="m 675.4,114.2 h 2.9 V 83.4 h -2.9 z"
         id="path5216"
         inkscape:connector-curvature="0" /></clipPath><clipPath
       clipPathUnits="userSpaceOnUse"
       id="clipPath5382"><path
         d="M 0,800 H 800 V 0 H 0 Z"
         id="path5380"
         inkscape:connector-curvature="0" /></clipPath><clipPath
       clipPathUnits="userSpaceOnUse"
       id="clipPath5410"><path
         d="m 280.8,401.5 h 238.4 v -23 H 280.8 Z"
         id="path5408"
         inkscape:connector-curvature="0" /></clipPath><clipPath
       clipPathUnits="userSpaceOnUse"
       id="clipPath5554"><path
         d="M 4.883e-4,800 H 800 V 0 H 4.883e-4 Z"
         id="path5552"
         inkscape:connector-curvature="0" /></clipPath><clipPath
       clipPathUnits="userSpaceOnUse"
       id="clipPath5114-0"><path
         d="M 125.7,335.5 H 240.1 V 87.44 H 125.7 Z"
         id="path5112-5"
         inkscape:connector-curvature="0" /></clipPath><clipPath
       clipPathUnits="userSpaceOnUse"
       id="clipPath5138-4"><path
         d="M 475,335.6 H 589.4 V 87.51 H 475 Z"
         id="path5136-5"
         inkscape:connector-curvature="0" /></clipPath><clipPath
       clipPathUnits="userSpaceOnUse"
       id="clipPath5198-5"><path
         d="m 244.8,118.5 h 2.9 V 87.79 h -2.9 z"
         id="path5196-8"
         inkscape:connector-curvature="0" /></clipPath><clipPath
       clipPathUnits="userSpaceOnUse"
       id="clipPath5218-2"><path
         d="m 675.4,114.2 h 2.9 V 83.4 h -2.9 z"
         id="path5216-9"
         inkscape:connector-curvature="0" /></clipPath><clipPath
       clipPathUnits="userSpaceOnUse"
       id="clipPath4684-1"><path
         d="m 443.5,761.5 h 66.9 v -27.2 h -66.9 z"
         id="path4682-0"
         inkscape:connector-curvature="0" /></clipPath><clipPath
       clipPathUnits="userSpaceOnUse"
       id="clipPath4668-2"><path
         d="m 677.9,630.8 h 66.9 v -27.2 h -66.9 z"
         id="path4666-8"
         inkscape:connector-curvature="0" /></clipPath><clipPath
       clipPathUnits="userSpaceOnUse"
       id="clipPath4652-6"><path
         d="m 622.2,775.1 h 66.9 v -27.2 h -66.9 z"
         id="path4650-4"
         inkscape:connector-curvature="0" /></clipPath></defs><sodipodi:namedview
     pagecolor="#ffffff"
     bordercolor="#666666"
     borderopacity="1"
     objecttolerance="10"
     gridtolerance="10"
     guidetolerance="10"
     inkscape:pageopacity="0"
     inkscape:pageshadow="2"
     inkscape:window-width="1366"
     inkscape:window-height="705"
     id="namedview4520"
     showgrid="false"
     inkscape:zoom="0.3665"
     inkscape:cx="100.5"
     inkscape:cy="260.5"
     inkscape:window-x="-8"
     inkscape:window-y="-8"
     inkscape:window-maximized="1"
     inkscape:current-layer="g6955" /><g
     id="g4526"
     inkscape:groupmode="layer"
     inkscape:label="36959-O0YFQ0"
     transform="matrix(1.333,0,0,-1.333,241.2,601.8)"><g
       id="g6955"
       transform="translate(56.55,104.7)"><g
         id="g7621"><path
           inkscape:connector-curvature="0"
           id="path5084"
           style="fill:#abde4a;fill-opacity:1;fill-rule:nonzero;stroke:none"
           d="m 472.5,39.57 c 0,-7.41 -6,-13.42 -13.4,-13.42 h -570.2 c -7.4,0 -13.4,6.01 -13.4,13.42 v 0.16 c 0,7.41 6,13.42 13.4,13.42 h 570.2 c 7.4,0 13.4,-6.01 13.4,-13.42 z" /><path
           d="M -119.6,-5.437 H 466.3 V 25.54 h -585.9 z"
           style="fill:#1d1d1b;fill-opacity:1;fill-rule:nonzero;stroke:none"
           id="path5086"
           inkscape:connector-curvature="0" /><path
           inkscape:connector-curvature="0"
           id="path5090"
           style="fill:none;stroke:#ffffff;stroke-width:3;stroke-linecap:round;stroke-linejoin:round;stroke-miterlimit:4;stroke-dasharray:none;stroke-opacity:1"
           d="m 461.3,10.02 c -2.7,0 -5.3,0 -8,0" /><path
           inkscape:connector-curvature="0"
           id="path5094"
           style="fill:none;stroke:#ffffff;stroke-width:3;stroke-linecap:round;stroke-linejoin:round;stroke-miterlimit:4;stroke-dasharray:16.165, 14.145;stroke-dashoffset:0;stroke-opacity:1"
           d="M 439.2,10 C 260.1,9.823 80.24,9.823 -99.26,10" /><path
           inkscape:connector-curvature="0"
           id="path5098"
           style="fill:none;stroke:#ffffff;stroke-width:3;stroke-linecap:round;stroke-linejoin:round;stroke-miterlimit:4;stroke-dasharray:none;stroke-opacity:1"
           d="m -106.4,9.963 c -2.7,0 -5.3,0 -8,0" /><path
           inkscape:connector-curvature="0"
           id="path5102"
           style="fill:#90a4ae;fill-opacity:1;fill-rule:nonzero;stroke:none"
           d="M 2.645,298.7 -111.8,50.55 H 117 Z" /><path
           inkscape:connector-curvature="0"
           id="path5106"
           style="fill:#ffffff;fill-opacity:1;fill-rule:nonzero;stroke:none"
           d="M 43.74,209.7 2.645,298.8 -38.46,209.7 -15.06,223 2.045,209.7 20.24,223 Z" /><g
           clip-path="url(#clipPath5114-0)"
           id="g5120"
           style="opacity:0.34"
           transform="translate(-237.5,-36.85)"><g
             transform="translate(240.1,335.5)"
             id="g5118"><path
               d="M 0,0 -114.4,-248.1 H 0 Z"
               style="fill:#ffffff;fill-opacity:1;fill-rule:nonzero;stroke:none"
               id="path5116"
               inkscape:connector-curvature="0" /></g></g><path
           inkscape:connector-curvature="0"
           id="path5126"
           style="fill:#90a4ae;fill-opacity:1;fill-rule:nonzero;stroke:none"
           d="M 351.9,298.8 237.5,50.65 h 228.8 z" /><path
           inkscape:connector-curvature="0"
           id="path5130"
           style="fill:#ffffff;fill-opacity:1;fill-rule:nonzero;stroke:none"
           d="m 393,209.7 -41.1,89.1 -41.1,-89.1 23.4,13.3 17.1,-13.3 18.2,13.3 z" /><g
           clip-path="url(#clipPath5138-4)"
           id="g5144"
           style="opacity:0.34"
           transform="translate(-237.5,-36.85)"><g
             transform="translate(589.4,335.6)"
             id="g5142"><path
               d="M 0,0 -114.4,-248.1 H 0 Z"
               style="fill:#ffffff;fill-opacity:1;fill-rule:nonzero;stroke:none"
               id="path5140"
               inkscape:connector-curvature="0" /></g></g><path
           d="M 27.24,46.85 H 135.5 V 124.8 H 27.24 Z"
           style="fill:#ffffff;fill-opacity:1;fill-rule:nonzero;stroke:none"
           id="path5148"
           inkscape:connector-curvature="0" /><path
           d="m 33.54,131 h 95.76 v 43.4 H 33.54 Z"
           style="fill:#ff5a58;fill-opacity:1;fill-rule:nonzero;stroke:none"
           id="path5150"
           inkscape:connector-curvature="0" /><path
           inkscape:connector-curvature="0"
           id="path5154"
           style="fill:#dd392f;fill-opacity:1;fill-rule:nonzero;stroke:none"
           d="m 27.24,131 v 48.4 h 6.2 V 131 h 95.76 v 48.4 h 6.2 v -48.4 0 -6.2 H 27.24 Z" /><path
           d="m 118.4,160.9 h -8.1 v 26.3 h 8.1 z"
           style="fill:#ffffff;fill-opacity:1;fill-rule:nonzero;stroke:none"
           id="path5156"
           inkscape:connector-curvature="0" /><path
           d="M 135.5,46.85 H 27.24 v 6.3 H 135.5 Z"
           style="fill:#dd392f;fill-opacity:1;fill-rule:nonzero;stroke:none"
           id="path5158"
           inkscape:connector-curvature="0" /><path
           inkscape:connector-curvature="0"
           id="path5162"
           style="fill:#ffffff;fill-opacity:1;fill-rule:nonzero;stroke:none"
           d="M 67.84,172.8 54.24,159.9 V 138 h 27.2 v 21.9 0 z" /><path
           inkscape:connector-curvature="0"
           id="path5166"
           style="fill:#f92c23;fill-opacity:1;fill-rule:nonzero;stroke:none"
           d="m 85.34,159.4 -17.5,16.4 v 0 0 l -17.5,-16.4 2.7,-2.9 14.8,13.9 14.8,-13.9 z" /><path
           d="m 77.34,161.5 h -19 v 1.6 h 19 z"
           style="fill:#f92c23;fill-opacity:1;fill-rule:nonzero;stroke:none"
           id="path5168"
           inkscape:connector-curvature="0" /><path
           d="m 74.94,140.9 h -14.2 v 17.4 h 14.2 z"
           style="fill:#90a4ae;fill-opacity:1;fill-rule:nonzero;stroke:none"
           id="path5170"
           inkscape:connector-curvature="0" /><path
           d="m 54.34,89.35 h -14.2 v 17.35 h 14.2 z"
           style="fill:#f9a825;fill-opacity:1;fill-rule:nonzero;stroke:none"
           id="path5172"
           inkscape:connector-curvature="0" /><path
           d="m 74.94,89.35 h -14.2 v 17.35 h 14.2 z"
           style="fill:#f9a825;fill-opacity:1;fill-rule:nonzero;stroke:none"
           id="path5174"
           inkscape:connector-curvature="0" /><path
           d="M 122,89.35 H 107.9 V 106.7 H 122 Z"
           style="fill:#90a4ae;fill-opacity:1;fill-rule:nonzero;stroke:none"
           id="path5176"
           inkscape:connector-curvature="0" /><path
           d="m 54.34,65.15 h -14.2 v 17.4 h 14.2 z"
           style="fill:#f9a825;fill-opacity:1;fill-rule:nonzero;stroke:none"
           id="path5178"
           inkscape:connector-curvature="0" /><path
           d="m 74.94,65.15 h -14.2 v 17.4 h 14.2 z"
           style="fill:#f9a825;fill-opacity:1;fill-rule:nonzero;stroke:none"
           id="path5180"
           inkscape:connector-curvature="0" /><path
           d="m 122,65.15 h -14.1 v 17.4 H 122 Z"
           style="fill:#90a4ae;fill-opacity:1;fill-rule:nonzero;stroke:none"
           id="path5182"
           inkscape:connector-curvature="0" /><path
           inkscape:connector-curvature="0"
           id="path5186"
           style="fill:#742c0e;fill-opacity:1;fill-rule:nonzero;stroke:none"
           d="m 99.04,54.09 v 29.26 c 0,3.9 -3.2,7.1 -7.1,7.1 h -0.5 c -3.9,0 -7.1,-3.2 -7.1,-7.1 V 54.09 Z" /><path
           d="M 101.5,53.15 H 81.54 v 4 h 19.96 z"
           style="fill:#3c3c3b;fill-opacity:1;fill-rule:nonzero;stroke:none"
           id="path5188"
           inkscape:connector-curvature="0" /><path
           d="M 13.04,50.94 H 7.345 v 30.71 h 5.695 z"
           style="fill:#abde4a;fill-opacity:1;fill-rule:nonzero;stroke:none"
           id="path5190"
           inkscape:connector-curvature="0" /><g
           clip-path="url(#clipPath5198-5)"
           id="g5202"
           style="opacity:0.39"
           transform="translate(-237.5,-36.85)"><path
             d="m 247.7,118.5 h -2.9 V 87.79 h 2.9 z"
             style="fill:#abde4a;fill-opacity:1;fill-rule:nonzero;stroke:none"
             id="path5200"
             inkscape:connector-curvature="0" /></g><path
           inkscape:connector-curvature="0"
           id="path5208"
           style="fill:#abde4a;fill-opacity:1;fill-rule:nonzero;stroke:none"
           d="m 23.24,106.1 c 1,2 1.6,4.3 1.6,6.6 0,8.1 -6.6,14.7 -14.7,14.7 -8.095,0 -14.595,-6.6 -14.595,-14.7 0,-2.3 0.6,-4.6 1.6,-6.6 -6.5,-4.2 -10.705,-11.65 -10.705,-19.95 0,-13.1 10.605,-23.73 23.7,-23.73 13.2,0 23.8,10.63 23.8,23.73 0,8.3 -4.2,15.75 -10.7,19.95" /><path
           d="m 443.6,46.55 h -5.7 v 30.8 h 5.7 z"
           style="fill:#8d6e63;fill-opacity:1;fill-rule:nonzero;stroke:none"
           id="path5210"
           inkscape:connector-curvature="0" /><g
           clip-path="url(#clipPath5218-2)"
           id="g5222"
           style="opacity:0.39"
           transform="translate(-237.5,-36.85)"><path
             d="m 678.3,114.2 h -2.9 V 83.4 h 2.9 z"
             style="fill:#ffffff;fill-opacity:1;fill-rule:nonzero;stroke:none"
             id="path5220"
             inkscape:connector-curvature="0" /></g><path
           inkscape:connector-curvature="0"
           id="path5228"
           style="fill:#abde4a;fill-opacity:1;fill-rule:nonzero;stroke:none"
           d="m 453.8,101.7 c 1,2 1.6,4.3 1.6,6.6 0,8.1 -6.6,14.7 -14.7,14.7 -8.1,0 -14.6,-6.6 -14.6,-14.7 0,-2.3 0.6,-4.6 1.6,-6.6 C 421.2,97.35 417,90.05 417,81.75 c 0,-13.1 10.6,-23.73 23.7,-23.73 13.2,0 23.8,10.63 23.8,23.73 0,8.3 -4.2,15.6 -10.7,19.95" /><path
           d="M 147,46.85 H 265 V 168.7 H 147 Z"
           style="fill:#ffffff;fill-opacity:1;fill-rule:nonzero;stroke:none"
           id="path5230"
           inkscape:connector-curvature="0" /><path
           inkscape:connector-curvature="0"
           id="path5234"
           style="fill:#f94148;fill-opacity:1;fill-rule:nonzero;stroke:none"
           d="m 159.1,208.6 h 93.8 l 14,-41.2 H 145.1 Z" /><path
           d="m 145.1,167.4 h 50.7 V 46.85 h -50.7 z"
           style="fill:#3c3c3b;fill-opacity:1;fill-rule:nonzero;stroke:none"
           id="path5236"
           inkscape:connector-curvature="0" /><path
           d="m 242.2,139.3 h 10.9 V 158 h -10.9 z"
           style="fill:#f9a825;fill-opacity:1;fill-rule:nonzero;stroke:none"
           id="path5238"
           inkscape:connector-curvature="0" /><path
           d="m 225,139.3 h 10.9 V 158 H 225 Z"
           style="fill:#f9a825;fill-opacity:1;fill-rule:nonzero;stroke:none"
           id="path5240"
           inkscape:connector-curvature="0" /><path
           d="m 207.7,139.3 h 10.9 V 158 h -10.9 z"
           style="fill:#f9a825;fill-opacity:1;fill-rule:nonzero;stroke:none"
           id="path5242"
           inkscape:connector-curvature="0" /><path
           d="m 242.2,111.9 h 10.9 v 18.7 h -10.9 z"
           style="fill:#f9a825;fill-opacity:1;fill-rule:nonzero;stroke:none"
           id="path5244"
           inkscape:connector-curvature="0" /><path
           d="m 225,111.9 h 10.9 v 18.7 H 225 Z"
           style="fill:#f9a825;fill-opacity:1;fill-rule:nonzero;stroke:none"
           id="path5246"
           inkscape:connector-curvature="0" /><path
           d="m 207.7,111.9 h 10.9 v 18.7 h -10.9 z"
           style="fill:#f9a825;fill-opacity:1;fill-rule:nonzero;stroke:none"
           id="path5248"
           inkscape:connector-curvature="0" /><path
           d="m 242.2,85.85 h 10.9 v 18.65 h -10.9 z"
           style="fill:#90a4ae;fill-opacity:1;fill-rule:nonzero;stroke:none"
           id="path5250"
           inkscape:connector-curvature="0" /><path
           d="m 225,85.85 h 10.9 V 104.5 H 225 Z"
           style="fill:#90a4ae;fill-opacity:1;fill-rule:nonzero;stroke:none"
           id="path5252"
           inkscape:connector-curvature="0" /><path
           d="m 207.7,85.85 h 10.9 v 18.65 h -10.9 z"
           style="fill:#90a4ae;fill-opacity:1;fill-rule:nonzero;stroke:none"
           id="path5254"
           inkscape:connector-curvature="0" /><path
           d="m 175,146.3 h 12.1 v 10.2 H 175 Z"
           style="fill:#f9a825;fill-opacity:1;fill-rule:nonzero;stroke:none"
           id="path5256"
           inkscape:connector-curvature="0" /><path
           d="M 155.9,146.3 H 168 v 10.2 h -12.1 z"
           style="fill:#f9a825;fill-opacity:1;fill-rule:nonzero;stroke:none"
           id="path5258"
           inkscape:connector-curvature="0" /><path
           d="m 175,131.9 h 12.1 v 10.2 H 175 Z"
           style="fill:#f9a825;fill-opacity:1;fill-rule:nonzero;stroke:none"
           id="path5260"
           inkscape:connector-curvature="0" /><path
           d="M 155.9,132.4 H 168 v 10.2 h -12.1 z"
           style="fill:#f9a825;fill-opacity:1;fill-rule:nonzero;stroke:none"
           id="path5262"
           inkscape:connector-curvature="0" /><path
           d="m 175,117.5 h 12.1 v 10.1 H 175 Z"
           style="fill:#f9a825;fill-opacity:1;fill-rule:nonzero;stroke:none"
           id="path5264"
           inkscape:connector-curvature="0" /><path
           d="M 155.9,118 H 168 v 10.2 h -12.1 z"
           style="fill:#90a4ae;fill-opacity:1;fill-rule:nonzero;stroke:none"
           id="path5266"
           inkscape:connector-curvature="0" /><path
           d="m 175,103.1 h 12.1 v 10.1 H 175 Z"
           style="fill:#f9a825;fill-opacity:1;fill-rule:nonzero;stroke:none"
           id="path5268"
           inkscape:connector-curvature="0" /><path
           d="M 155.9,103.6 H 168 v 10.1 h -12.1 z"
           style="fill:#f9a825;fill-opacity:1;fill-rule:nonzero;stroke:none"
           id="path5270"
           inkscape:connector-curvature="0" /><path
           d="m 175,89.15 h 12.1 v 10.1 H 175 Z"
           style="fill:#f9a825;fill-opacity:1;fill-rule:nonzero;stroke:none"
           id="path5272"
           inkscape:connector-curvature="0" /><path
           d="M 155.9,89.15 H 168 v 10.1 h -12.1 z"
           style="fill:#90a4ae;fill-opacity:1;fill-rule:nonzero;stroke:none"
           id="path5274"
           inkscape:connector-curvature="0" /><path
           d="m 220.7,74.95 h 19 v -28.1 h -19 z"
           style="fill:#742c0e;fill-opacity:1;fill-rule:nonzero;stroke:none"
           id="path5276"
           inkscape:connector-curvature="0" /><path
           d="m 162,74.95 h 19 v -28.1 h -19 z"
           style="fill:#742c0e;fill-opacity:1;fill-rule:nonzero;stroke:none"
           id="path5278"
           inkscape:connector-curvature="0" /><path
           d="m 202.3,135.8 h 56.3 v 4.5 h -56.3 z"
           style="fill:#f94148;fill-opacity:1;fill-rule:nonzero;stroke:none"
           id="path5280"
           inkscape:connector-curvature="0" /><path
           d="m 202.3,108.5 h 56.3 v 4.5 h -56.3 z"
           style="fill:#f94148;fill-opacity:1;fill-rule:nonzero;stroke:none"
           id="path5282"
           inkscape:connector-curvature="0" /><path
           inkscape:connector-curvature="0"
           id="path5286"
           style="fill:#f94148;fill-opacity:1;fill-rule:nonzero;stroke:none"
           d="m 202.3,86.95 v -4.5 h 56.4 v 4.5" /><path
           d="m 241.4,173.5 h 10.3 v 8.6 h -10.3 z"
           style="fill:#ffffff;fill-opacity:1;fill-rule:nonzero;stroke:none"
           id="path5288"
           inkscape:connector-curvature="0" /><path
           d="M 225.7,173.5 H 236 v 8.6 h -10.3 z"
           style="fill:#ffffff;fill-opacity:1;fill-rule:nonzero;stroke:none"
           id="path5290"
           inkscape:connector-curvature="0" /><path
           d="m 210,173.5 h 10.3 v 8.6 H 210 Z"
           style="fill:#ffffff;fill-opacity:1;fill-rule:nonzero;stroke:none"
           id="path5292"
           inkscape:connector-curvature="0" /><path
           d="m 187.2,200.5 h -8.7 v 17.6 h 8.7 z"
           style="fill:#ffffff;fill-opacity:1;fill-rule:nonzero;stroke:none"
           id="path5294"
           inkscape:connector-curvature="0" /><path
           d="m 189,215.6 h -12.3 v 3.5 H 189 Z"
           style="fill:#f94148;fill-opacity:1;fill-rule:nonzero;stroke:none"
           id="path5296"
           inkscape:connector-curvature="0" /><path
           d="m 375,225 h -2.8 v 17.7 h 2.8 z"
           style="fill:#4b4544;fill-opacity:1;fill-rule:nonzero;stroke:none"
           id="path5298"
           inkscape:connector-curvature="0" /><path
           d="M 378.1,235.2 H 369 v 2.3 h 9.1 z"
           style="fill:#4b4544;fill-opacity:1;fill-rule:nonzero;stroke:none"
           id="path5300"
           inkscape:connector-curvature="0" /><path
           inkscape:connector-curvature="0"
           id="path5304"
           style="fill:#742c0e;fill-opacity:1;fill-rule:nonzero;stroke:none"
           d="m 397.9,202.9 c 0,-13.4 -10.9,-24.3 -24.3,-24.3 -13.5,0 -24.4,10.9 -24.4,24.3 0,13.4 10.9,24.3 24.4,24.3 13.4,0 24.3,-10.9 24.3,-24.3" /><path
           d="m 398.8,152.5 h -50.4 v 51 h 50.4 z"
           style="fill:#ffffff;fill-opacity:1;fill-rule:nonzero;stroke:none"
           id="path5306"
           inkscape:connector-curvature="0" /><path
           inkscape:connector-curvature="0"
           id="path5310"
           style="fill:#742c0e;fill-opacity:1;fill-rule:nonzero;stroke:none"
           d="m 407.2,163.8 h -62.8 -62.8 l -12.2,-26.4 h 75 75 z" /><path
           d="M 413.3,51.24 H 275.6 v 86.16 h 137.7 z"
           style="fill:#ffffff;fill-opacity:1;fill-rule:nonzero;stroke:none"
           id="path5312"
           inkscape:connector-curvature="0" /><path
           d="m 302.8,100.7 h -14.4 v 24.1 h 14.4 z"
           style="fill:#90a4ae;fill-opacity:1;fill-rule:nonzero;stroke:none"
           id="path5314"
           inkscape:connector-curvature="0" /><path
           d="m 327.2,100.7 h -14.4 v 24.1 h 14.4 z"
           style="fill:#90a4ae;fill-opacity:1;fill-rule:nonzero;stroke:none"
           id="path5316"
           inkscape:connector-curvature="0" /><path
           d="m 351.6,100.7 h -14.4 v 24.1 h 14.4 z"
           style="fill:#90a4ae;fill-opacity:1;fill-rule:nonzero;stroke:none"
           id="path5318"
           inkscape:connector-curvature="0" /><path
           d="m 376,100.7 h -14.3 v 24.1 H 376 Z"
           style="fill:#90a4ae;fill-opacity:1;fill-rule:nonzero;stroke:none"
           id="path5320"
           inkscape:connector-curvature="0" /><path
           d="m 400.5,100.7 h -14.4 v 24.1 h 14.4 z"
           style="fill:#90a4ae;fill-opacity:1;fill-rule:nonzero;stroke:none"
           id="path5322"
           inkscape:connector-curvature="0" /><path
           d="m 302.8,66.95 h -14.4 v 24.1 h 14.4 z"
           style="fill:#f9a825;fill-opacity:1;fill-rule:nonzero;stroke:none"
           id="path5324"
           inkscape:connector-curvature="0" /><path
           d="m 327.2,66.95 h -14.4 v 24.1 h 14.4 z"
           style="fill:#f9a825;fill-opacity:1;fill-rule:nonzero;stroke:none"
           id="path5326"
           inkscape:connector-curvature="0" /><path
           d="m 351.6,66.95 h -14.4 v 24.1 h 14.4 z"
           style="fill:#90a4ae;fill-opacity:1;fill-rule:nonzero;stroke:none"
           id="path5328"
           inkscape:connector-curvature="0" /><path
           d="m 376,66.95 h -14.3 v 24.1 H 376 Z"
           style="fill:#90a4ae;fill-opacity:1;fill-rule:nonzero;stroke:none"
           id="path5330"
           inkscape:connector-curvature="0" /><path
           d="m 400.5,66.95 h -14.4 v 24.1 h 14.4 z"
           style="fill:#90a4ae;fill-opacity:1;fill-rule:nonzero;stroke:none"
           id="path5332"
           inkscape:connector-curvature="0" /><path
           d="m 398.8,203.5 h -50.4 v 3.4 h 50.4 z"
           style="fill:#fdfdfd;fill-opacity:1;fill-rule:nonzero;stroke:none"
           id="path5334"
           inkscape:connector-curvature="0" /><path
           inkscape:connector-curvature="0"
           id="path5338"
           style="fill:#81f6ec;fill-opacity:1;fill-rule:nonzero;stroke:none"
           d="m 382.4,186.2 c 0,-4.9 -4,-8.9 -8.9,-8.9 -4.9,0 -8.9,4 -8.9,8.9 0,4.9 4,8.9 8.9,8.9 4.9,0 8.9,-4 8.9,-8.9" /><path
           d="m 275.6,46.84 h 137.7 v 8.94 H 275.6 Z"
           style="fill:#742c0e;fill-opacity:1;fill-rule:nonzero;stroke:none"
           id="path5340"
           inkscape:connector-curvature="0" /><path
           d="M -9.255,48.05 H -109 V 184.5 h 99.745 z"
           style="fill:#3c3c3b;fill-opacity:1;fill-rule:nonzero;stroke:none"
           id="path5342"
           inkscape:connector-curvature="0" /><path
           d="m -81.66,143.9 h -11.8 v 29.9 h 11.8 z"
           style="fill:#f9d800;fill-opacity:1;fill-rule:nonzero;stroke:none"
           id="path5344"
           inkscape:connector-curvature="0" /><path
           d="m -62.66,143.9 h -11.8 v 29.9 h 11.8 z"
           style="fill:#f9d800;fill-opacity:1;fill-rule:nonzero;stroke:none"
           id="path5346"
           inkscape:connector-curvature="0" /><path
           d="m -43.76,143.9 h -11.8 v 29.9 h 11.8 z"
           style="fill:#f9d800;fill-opacity:1;fill-rule:nonzero;stroke:none"
           id="path5348"
           inkscape:connector-curvature="0" /><path
           d="m -24.76,143.9 h -11.8 v 29.9 h 11.8 z"
           style="fill:#f9d800;fill-opacity:1;fill-rule:nonzero;stroke:none"
           id="path5350"
           inkscape:connector-curvature="0" /><path
           d="m -81.66,106.7 h -11.8 v 29.8 h 11.8 z"
           style="fill:#f9d800;fill-opacity:1;fill-rule:nonzero;stroke:none"
           id="path5352"
           inkscape:connector-curvature="0" /><path
           d="m -62.66,106.7 h -11.8 v 29.8 h 11.8 z"
           style="fill:#90a4ae;fill-opacity:1;fill-rule:nonzero;stroke:none"
           id="path5354"
           inkscape:connector-curvature="0" /><path
           d="m -43.76,106.7 h -11.8 v 29.8 h 11.8 z"
           style="fill:#f9d800;fill-opacity:1;fill-rule:nonzero;stroke:none"
           id="path5356"
           inkscape:connector-curvature="0" /><path
           d="m -24.76,106.7 h -11.8 v 29.8 h 11.8 z"
           style="fill:#90a4ae;fill-opacity:1;fill-rule:nonzero;stroke:none"
           id="path5358"
           inkscape:connector-curvature="0" /><path
           d="m -81.66,69.35 h -11.8 v 29.9 h 11.8 z"
           style="fill:#f9d800;fill-opacity:1;fill-rule:nonzero;stroke:none"
           id="path5360"
           inkscape:connector-curvature="0" /><path
           inkscape:connector-curvature="0"
           id="path5364"
           style="fill:#90a4ae;fill-opacity:1;fill-rule:nonzero;stroke:none"
           d="m -62.66,99.25 h -3.7 -8.1 V 56.9 h 8.1 3.7 19 v 42.35 z" /><path
           d="m -24.76,69.35 h -11.8 v 29.9 h 11.8 z"
           style="fill:#f9d800;fill-opacity:1;fill-rule:nonzero;stroke:none"
           id="path5366"
           inkscape:connector-curvature="0" /><path
           d="m -37.86,48.05 h -42.5 v 10.91 h 42.5 z"
           style="fill:#4b4544;fill-opacity:1;fill-rule:nonzero;stroke:none"
           id="path5368"
           inkscape:connector-curvature="0" /><path
           d="M -3.055,184.5 H -115.2 V 205 H -3.055 Z"
           style="fill:#90a4ae;fill-opacity:1;fill-rule:nonzero;stroke:none"
           id="path5370"
           inkscape:connector-curvature="0" /><text
           transform="scale(1,-1)"
           style="font-variant:normal;font-weight:bold;font-stretch:normal;font-size:13.1632px;font-family:Dosis;-inkscape-font-specification:Dosis-Bold;writing-mode:lr-tb;fill:#ffffff;fill-opacity:1;fill-rule:nonzero;stroke:none"
           id="text5374"
           x="-74.26"
           y="-188.1"><tspan
             x="-74.26 -66.86 -59.29 -51.33"
             y="-188.1"
             sodipodi:role="line"
             id="tspan5372">BANK</tspan></text>
</g></g></g></svg>