<?xml version="1.0" encoding="UTF-8" standalone="no"?>
<!-- Created with Inkscape (http://www.inkscape.org/) -->

<svg
   xmlns:dc="http://purl.org/dc/elements/1.1/"
   xmlns:cc="http://creativecommons.org/ns#"
   xmlns:rdf="http://www.w3.org/1999/02/22-rdf-syntax-ns#"
   xmlns:svg="http://www.w3.org/2000/svg"
   xmlns="http://www.w3.org/2000/svg"
   xmlns:sodipodi="http://sodipodi.sourceforge.net/DTD/sodipodi-0.dtd"
   xmlns:inkscape="http://www.inkscape.org/namespaces/inkscape"
   version="1.1"
   id="svg4518"
   xml:space="preserve"
   width="1066"
   height="511.4"
   viewBox="0 0 1066 511.4"
   sodipodi:docname="clouds.svg"
   inkscape:version="0.92.4 (5da689c313, 2019-01-14)"><metadata
     id="metadata4524"><rdf:RDF><cc:Work
         rdf:about=""><dc:format>image/svg+xml</dc:format><dc:type
           rdf:resource="http://purl.org/dc/dcmitype/StillImage" /><dc:title></dc:title></cc:Work></rdf:RDF></metadata><defs
     id="defs4522"><clipPath
       clipPathUnits="userSpaceOnUse"
       id="clipPath4540"><path
         d="M 0,800 H 800 V 0 H 0 Z"
         id="path4538"
         inkscape:connector-curvature="0" /></clipPath><clipPath
       clipPathUnits="userSpaceOnUse"
       id="clipPath4548"><path
         d="M 0,400 H 800 V 0 H 0 Z"
         id="path4546"
         inkscape:connector-curvature="0" /></clipPath><radialGradient
       fx="0"
       fy="0"
       cx="0"
       cy="0"
       r="1"
       gradientUnits="userSpaceOnUse"
       gradientTransform="matrix(316.2,0,0,-316.2,400,200)"
       spreadMethod="pad"
       id="radialGradient4558"><stop
         style="stop-opacity:1;stop-color:#ffffff"
         offset="0"
         id="stop4554" /><stop
         style="stop-opacity:1;stop-color:#1d1d1b"
         offset="1"
         id="stop4556" /></radialGradient><clipPath
       clipPathUnits="userSpaceOnUse"
       id="clipPath4580"><path
         d="M 0,800 H 800 V 400 H 0 Z"
         id="path4578"
         inkscape:connector-curvature="0" /></clipPath><radialGradient
       fx="0"
       fy="0"
       cx="0"
       cy="0"
       r="1"
       gradientUnits="userSpaceOnUse"
       gradientTransform="matrix(316.2,0,0,-316.2,400,600)"
       spreadMethod="pad"
       id="radialGradient4590"><stop
         style="stop-opacity:1;stop-color:#ffffff"
         offset="0"
         id="stop4586" /><stop
         style="stop-opacity:1;stop-color:#1d1d1b"
         offset="1"
         id="stop4588" /></radialGradient><clipPath
       clipPathUnits="userSpaceOnUse"
       id="clipPath4612"><path
         d="M 0,800 H 800 V 0 H 0 Z"
         id="path4610"
         inkscape:connector-curvature="0" /></clipPath><clipPath
       clipPathUnits="userSpaceOnUse"
       id="clipPath4620"><path
         d="m 73,721.5 h 66.9 V 694.3 H 73 Z"
         id="path4618"
         inkscape:connector-curvature="0" /></clipPath><clipPath
       clipPathUnits="userSpaceOnUse"
       id="clipPath4636"><path
         d="M 45.95,552.6 H 112.9 V 525.4 H 45.95 Z"
         id="path4634"
         inkscape:connector-curvature="0" /></clipPath><clipPath
       clipPathUnits="userSpaceOnUse"
       id="clipPath4652"><path
         d="m 622.2,775.1 h 66.9 v -27.2 h -66.9 z"
         id="path4650"
         inkscape:connector-curvature="0" /></clipPath><clipPath
       clipPathUnits="userSpaceOnUse"
       id="clipPath4668"><path
         d="m 677.9,630.8 h 66.9 v -27.2 h -66.9 z"
         id="path4666"
         inkscape:connector-curvature="0" /></clipPath><clipPath
       clipPathUnits="userSpaceOnUse"
       id="clipPath4684"><path
         d="m 443.5,761.5 h 66.9 v -27.2 h -66.9 z"
         id="path4682"
         inkscape:connector-curvature="0" /></clipPath><clipPath
       clipPathUnits="userSpaceOnUse"
       id="clipPath4730"><path
         d="M 126.7,738.5 H 241.1 V 490.4 H 126.7 Z"
         id="path4728"
         inkscape:connector-curvature="0" /></clipPath><clipPath
       clipPathUnits="userSpaceOnUse"
       id="clipPath4754"><path
         d="M 476,738.6 H 590.4 V 490.5 H 476 Z"
         id="path4752"
         inkscape:connector-curvature="0" /></clipPath><clipPath
       clipPathUnits="userSpaceOnUse"
       id="clipPath4814"><path
         d="m 245.8,521.5 h 2.9 v -30.7 h -2.9 z"
         id="path4812"
         inkscape:connector-curvature="0" /></clipPath><clipPath
       clipPathUnits="userSpaceOnUse"
       id="clipPath4834"><path
         d="m 676.4,517.2 h 2.9 v -30.8 h -2.9 z"
         id="path4832"
         inkscape:connector-curvature="0" /></clipPath><clipPath
       clipPathUnits="userSpaceOnUse"
       id="clipPath4998"><path
         d="M 0,800 H 800 V 0 H 0 Z"
         id="path4996"
         inkscape:connector-curvature="0" /></clipPath><clipPath
       clipPathUnits="userSpaceOnUse"
       id="clipPath5114"><path
         d="M 125.7,335.5 H 240.1 V 87.44 H 125.7 Z"
         id="path5112"
         inkscape:connector-curvature="0" /></clipPath><clipPath
       clipPathUnits="userSpaceOnUse"
       id="clipPath5138"><path
         d="M 475,335.6 H 589.4 V 87.51 H 475 Z"
         id="path5136"
         inkscape:connector-curvature="0" /></clipPath><clipPath
       clipPathUnits="userSpaceOnUse"
       id="clipPath5198"><path
         d="m 244.8,118.5 h 2.9 V 87.79 h -2.9 z"
         id="path5196"
         inkscape:connector-curvature="0" /></clipPath><clipPath
       clipPathUnits="userSpaceOnUse"
       id="clipPath5218"><path
         d="m 675.4,114.2 h 2.9 V 83.4 h -2.9 z"
         id="path5216"
         inkscape:connector-curvature="0" /></clipPath><clipPath
       clipPathUnits="userSpaceOnUse"
       id="clipPath5382"><path
         d="M 0,800 H 800 V 0 H 0 Z"
         id="path5380"
         inkscape:connector-curvature="0" /></clipPath><clipPath
       clipPathUnits="userSpaceOnUse"
       id="clipPath5410"><path
         d="m 280.8,401.5 h 238.4 v -23 H 280.8 Z"
         id="path5408"
         inkscape:connector-curvature="0" /></clipPath><clipPath
       clipPathUnits="userSpaceOnUse"
       id="clipPath5554"><path
         d="M 4.883e-4,800 H 800 V 0 H 4.883e-4 Z"
         id="path5552"
         inkscape:connector-curvature="0" /></clipPath><clipPath
       clipPathUnits="userSpaceOnUse"
       id="clipPath5114-0"><path
         d="M 125.7,335.5 H 240.1 V 87.44 H 125.7 Z"
         id="path5112-5"
         inkscape:connector-curvature="0" /></clipPath><clipPath
       clipPathUnits="userSpaceOnUse"
       id="clipPath5138-4"><path
         d="M 475,335.6 H 589.4 V 87.51 H 475 Z"
         id="path5136-5"
         inkscape:connector-curvature="0" /></clipPath><clipPath
       clipPathUnits="userSpaceOnUse"
       id="clipPath5198-5"><path
         d="m 244.8,118.5 h 2.9 V 87.79 h -2.9 z"
         id="path5196-8"
         inkscape:connector-curvature="0" /></clipPath><clipPath
       clipPathUnits="userSpaceOnUse"
       id="clipPath5218-2"><path
         d="m 675.4,114.2 h 2.9 V 83.4 h -2.9 z"
         id="path5216-9"
         inkscape:connector-curvature="0" /></clipPath><clipPath
       clipPathUnits="userSpaceOnUse"
       id="clipPath4684-1"><path
         d="m 443.5,761.5 h 66.9 v -27.2 h -66.9 z"
         id="path4682-0"
         inkscape:connector-curvature="0" /></clipPath><clipPath
       clipPathUnits="userSpaceOnUse"
       id="clipPath4668-2"><path
         d="m 677.9,630.8 h 66.9 v -27.2 h -66.9 z"
         id="path4666-8"
         inkscape:connector-curvature="0" /></clipPath><clipPath
       clipPathUnits="userSpaceOnUse"
       id="clipPath4652-6"><path
         d="m 622.2,775.1 h 66.9 v -27.2 h -66.9 z"
         id="path4650-4"
         inkscape:connector-curvature="0" /></clipPath><clipPath
       clipPathUnits="userSpaceOnUse"
       id="clipPath4684-1-8"><path
         d="m 443.5,761.5 h 66.9 v -27.2 h -66.9 z"
         id="path4682-0-7"
         inkscape:connector-curvature="0" /></clipPath><clipPath
       clipPathUnits="userSpaceOnUse"
       id="clipPath4668-2-8"><path
         d="m 677.9,630.8 h 66.9 v -27.2 h -66.9 z"
         id="path4666-8-3"
         inkscape:connector-curvature="0" /></clipPath><clipPath
       clipPathUnits="userSpaceOnUse"
       id="clipPath4652-6-8"><path
         d="m 622.2,775.1 h 66.9 v -27.2 h -66.9 z"
         id="path4650-4-4"
         inkscape:connector-curvature="0" /></clipPath><clipPath
       clipPathUnits="userSpaceOnUse"
       id="clipPath4684-1-8-5"><path
         d="m 443.5,761.5 h 66.9 v -27.2 h -66.9 z"
         id="path4682-0-7-2"
         inkscape:connector-curvature="0" /></clipPath><clipPath
       clipPathUnits="userSpaceOnUse"
       id="clipPath4668-2-8-5"><path
         d="m 677.9,630.8 h 66.9 v -27.2 h -66.9 z"
         id="path4666-8-3-9"
         inkscape:connector-curvature="0" /></clipPath><clipPath
       clipPathUnits="userSpaceOnUse"
       id="clipPath4652-6-8-2"><path
         d="m 622.2,775.1 h 66.9 v -27.2 h -66.9 z"
         id="path4650-4-4-8"
         inkscape:connector-curvature="0" /></clipPath></defs><sodipodi:namedview
     pagecolor="#ffffff"
     bordercolor="#666666"
     borderopacity="1"
     objecttolerance="10"
     gridtolerance="10"
     guidetolerance="10"
     inkscape:pageopacity="0"
     inkscape:pageshadow="2"
     inkscape:window-width="1366"
     inkscape:window-height="705"
     id="namedview4520"
     showgrid="false"
     inkscape:zoom="0.3665"
     inkscape:cx="100.5"
     inkscape:cy="260.5"
     inkscape:window-x="-8"
     inkscape:window-y="-8"
     inkscape:window-maximized="1"
     inkscape:current-layer="g4526" /><g
     id="g4526"
     inkscape:groupmode="layer"
     inkscape:label="36959-O0YFQ0"
     transform="matrix(1.333,0,0,-1.333,241.2,601.8)"><g
       id="g7858"><g
         transform="translate(-339.3,-389.6)"
         id="g4658"
         clip-path="url(#clipPath4652-6-8-2)"><g
           id="g4656"
           transform="translate(622.2,749.3)"><path
             inkscape:connector-curvature="0"
             id="path4654"
             style="fill:#ffffff;fill-opacity:1;fill-rule:nonzero;stroke:none"
             d="m 0,0 c 0,9.764 7.914,17.68 17.68,17.68 1.17,0 2.32,-0.12 3.43,-0.34 1.82,4.91 6.54,8.41 12.08,8.41 5.4,0 10.01,-3.32 11.93,-8.03 1.03,0.49 2.19,0.77 3.42,0.77 4.39,0 7.94,-3.55 7.94,-7.94 0,-0.19 0,-0.39 0,-0.576 5.86,-0.5 10.46,-5.412 10.46,-11.402 H 0.082 C 0.023,-0.956 0,-0.481 0,0" /></g></g><g
         transform="translate(-191.6,-310.5)"
         id="g4674"
         clip-path="url(#clipPath4668-2-8-5)"><g
           id="g4672"
           transform="translate(677.9,605.1)"><path
             inkscape:connector-curvature="0"
             id="path4670"
             style="fill:#ffffff;fill-opacity:1;fill-rule:nonzero;stroke:none"
             d="m 0,0 c 0,9.764 7.914,17.68 17.68,17.68 1.17,0 2.32,-0.12 3.43,-0.34 1.82,4.91 6.54,8.41 12.08,8.41 5.4,0 10.01,-3.32 11.93,-8.03 1.03,0.49 2.19,0.77 3.42,0.77 4.39,0 7.94,-3.55 7.94,-7.94 0,-0.19 0,-0.39 0,-0.576 5.86,-0.5 10.46,-5.412 10.46,-11.402 H 0.082 C 0.023,-0.956 0,-0.481 0,0" /></g></g><g
         transform="translate(-562.4,-381.4)"
         id="g4690"
         clip-path="url(#clipPath4684-1-8-5)"><g
           id="g4688"
           transform="translate(443.5,735.7)"><path
             inkscape:connector-curvature="0"
             id="path4686"
             style="fill:#ffffff;fill-opacity:1;fill-rule:nonzero;stroke:none"
             d="m 0,0 c 0,9.764 7.914,17.68 17.68,17.68 1.17,0 2.32,-0.12 3.43,-0.34 1.82,4.91 6.54,8.41 12.08,8.41 5.4,0 10.01,-3.32 11.93,-8.03 1.03,0.49 2.19,0.77 3.42,0.77 4.39,0 7.94,-3.55 7.94,-7.94 0,-0.19 0,-0.39 0,-0.576 5.86,-0.5 10.46,-5.412 10.46,-11.402 H 0.082 C 0.023,-0.956 0,-0.481 0,0" /></g></g></g></g></svg>